<svg xmlns="http://www.w3.org/2000/svg" xmlns:xlink="http://www.w3.org/1999/xlink" viewBox="0 0 748.25 648"><defs><style>.cls-1{fill:url(#linear-gradient);}.cls-2{fill:#fff;}</style><linearGradient id="linear-gradient" x1="374.12" y1="-31.74" x2="374.12" y2="713.04" gradientUnits="userSpaceOnUse"><stop offset="0.1" stop-color="#80b0e6"/><stop offset="0.91" stop-color="#08213d"/></linearGradient></defs><g id="Layer_18" data-name="Layer 18"><polygon class="cls-1" points="1.73 647 374.12 2 746.51 647 1.73 647"/><path d="M394.68,33,765.34,675H24L394.68,33m0-4L20.56,677H768.8L394.68,29Z" transform="translate(-20.56 -29)"/></g><g id="Layer_19" data-name="Layer 19"><polygon class="cls-2" points="564.81 584.76 374.12 254.48 183.44 584.76 109.53 584.76 374.12 126.48 638.71 584.76 564.81 584.76"/><path d="M394.68,157.48,657.54,612.76h-71.6L396.41,284.48l-1.73-3-1.73,3L203.42,612.76h-71.6L394.68,157.48m0-4L128.36,614.76h76.21L394.68,285.48,584.79,614.76H661L394.68,153.48Z" transform="translate(-20.56 -29)"/></g></svg>