<svg id="Layer_1_copy_2" data-name="Layer 1 copy 2" xmlns="http://www.w3.org/2000/svg" xmlns:xlink="http://www.w3.org/1999/xlink" viewBox="0 0 76.21 35"><defs><style>.cls-1{fill:url(#linear-gradient);}.cls-2{fill:#fff;}</style><linearGradient id="linear-gradient" x1="38.1" y1="-7.96" x2="38.1" y2="67.83" gradientUnits="userSpaceOnUse"><stop offset="0.16" stop-color="#80b0e6"/><stop offset="0.67" stop-color="#08213d"/></linearGradient></defs><polygon class="cls-1" points="0.43 34.75 20.35 0.25 75.78 0.25 55.85 34.75 0.43 34.75"/><path d="M76.34,1.5l-19.63,34H1.87L21.5,1.5H76.34m.87-.5h-56L1,36H57L77.21,1Z" transform="translate(-1 -1)"/><polygon class="cls-2" points="47.35 32.88 34 9.75 20.65 32.88 16.32 32.88 34 2.25 51.68 32.88 47.35 32.88"/><path d="M35,3.5,52.47,33.75h-4L35.22,10.87,35,10.5l-.22.37L21.58,33.75h-4L35,3.5M35,3,17.1,34h4.62L35,11,48.28,34H52.9L35,3Z" transform="translate(-1 -1)"/></svg>