<svg xmlns="http://www.w3.org/2000/svg" xmlns:xlink="http://www.w3.org/1999/xlink" viewBox="0 0 748.25 648"><defs><style>.cls-1{fill:url(#linear-gradient);}.cls-2{fill:#5788c0;}.cls-3,.cls-4{fill:#fff;}.cls-4{stroke:#000;stroke-miterlimit:10;stroke-width:2px;}</style><linearGradient id="linear-gradient" x1="374.12" y1="-32.74" x2="374.12" y2="712.04" gradientUnits="userSpaceOnUse"><stop offset="0.11" stop-color="#80b0e6"/><stop offset="0.81" stop-color="#08213d"/></linearGradient></defs><g id="Layer_4_copy_3" data-name="Layer 4 copy 3"><polygon class="cls-1" points="1.73 1 746.51 1 374.12 646 1.73 1"/><path class="cls-2" d="M1053.66,62,683,704,312.34,62h741.32m3.46-2H308.88L683,708,1057.12,60Z" transform="translate(-308.88 -60)"/></g><g id="Layer_4_copy_4" data-name="Layer 4 copy 4"><polygon class="cls-3" points="50.32 27.6 161.17 27.99 130.93 69.94 310.12 378.27 310.12 70.63 273.3 27.99 361.12 27.59 361.12 565.93 50.32 27.6"/><path d="M669,88.6V622.2L360.93,88.6,468.1,89l-28.72,39.84-.76,1,.65,1.12,177,304.56L620,442V130.26l-.49-.57L584.35,89,669,88.6m2-2L580,87l38,44V434.56L441,130l31-43-114.54-.41L671,629.66V86.59Z" transform="translate(-308.88 -60)"/><polygon class="cls-3" points="387.12 323.41 440.34 376.63 494.41 281.76 387.12 195.13 387.12 27.59 697.93 27.59 649.58 111.33 619.63 70 436.12 70 436.12 159.49 563.73 260.03 387.12 565.93 387.12 323.41"/><path d="M1005.08,88.59,958.36,169.5l-28.74-39.67L929,129H744v91l.76.6,126.55,99.71L697,622.2V385.83l50.59,50.58,1.85,1.86,1.3-2.28,53-93,.84-1.48-1.32-1.07L697,254.65V88.59h308.08m3.46-2H695v169L802,342l-53,93-54-54V629.66L873.91,319.78,746,219V131H928l30.55,42.17,50-86.58Z" transform="translate(-308.88 -60)"/><path class="cls-4" d="M693.84,51.27" transform="translate(-308.88 -60)"/></g></svg>