<svg xmlns="http://www.w3.org/2000/svg" viewBox="0 0 748.24 648"><defs><style>.cls-1{fill:#006;}.cls-2,.cls-3{fill:#fff;}.cls-3{stroke:#000;stroke-miterlimit:10;stroke-width:2px;}</style></defs><g id="Layer_4_copy_6" data-name="Layer 4 copy 6"><path class="cls-1" d="M601,564H765L683,706Zm-20.2-35L310.61,61h744.78L785.19,529Z" transform="translate(-308.88 -60)"/><path d="M1053.66,62l-269,466H581.38l-269-466h741.32M763.26,565,683,704,602.74,565H763.26M1057.12,60H308.88L580.23,530H785.77L1057.12,60ZM766.72,563H599.28L683,708l83.72-145Z" transform="translate(-308.88 -60)"/></g><g id="Layer_4_copy_5" data-name="Layer 4 copy 5"><polygon class="cls-2" points="291.88 446 50.31 27.59 107.66 27.59 131.91 69.59 310.12 378.29 310.12 27.59 361.12 27.59 361.12 446 291.88 446"/><path d="M669,88.59V505H601.33L360.92,88.59h55l24,41.5L616.27,435.56,620,442V88.59h49m2-2H618v348L441.66,129.09,417.24,86.8l-.12-.21H357.46L600.18,507H671V86.59Z" transform="translate(-308.88 -60)"/><polygon class="cls-2" points="291.88 446 50.32 27.6 108.36 27.8 161.17 27.99 131.97 68.5 130.93 69.94 310.12 378.27 310.12 70.63 273.3 27.99 361.12 27.59 361.12 446 291.88 446"/><path d="M669,88.6V505H601.33L360.93,88.6l56.3.2L468.1,89,440,127.92l-.66.91-.76,1,.65,1.12,177,304.56L620,442V130.26l-.49-.57L584.35,89,618,88.83l51-.23m2-2-53,.24L580,87l38,44V434.56L441,130l.66-.91L472,87l-54.76-.2-59.78-.21L600.18,507H671V86.59Z" transform="translate(-308.88 -60)"/><polygon class="cls-2" points="387.12 446 387.12 323.41 440.34 376.63 494.41 281.76 387.12 195.13 387.12 27.59 697.93 27.59 649.58 111.33 619.63 70 436.12 70 436.12 159.49 563.73 260.03 456.36 446 387.12 446"/><path d="M1005.08,88.59,958.36,169.5l-28.74-39.67L929,129H744v91l.76.6,126.55,99.71L764.67,505H697V385.83l50.59,50.58,1.85,1.86,1.3-2.28,53-93,.84-1.48-1.32-1.07L697,254.65V88.59h308.08m3.46-2H695v169L802,342l-53,93-54-54V507h70.82L873.91,319.78,746,219V131H928l30.55,42.17,50-86.58Z" transform="translate(-308.88 -60)"/><path class="cls-3" d="M693.84,51.27" transform="translate(-308.88 -60)"/></g><g id="Layer_17" data-name="Layer 17"><polygon class="cls-3" points="338.86 531.96 374.12 593.04 409.38 531.96 338.86 531.96"/></g></svg>